<?xml version="1.0" encoding="UTF-8" standalone="no"?>
<svg width="48px" height="48px" viewBox="0 0 48 48" version="1.1" xmlns="http://www.w3.org/2000/svg" xmlns:xlink="http://www.w3.org/1999/xlink">
    <!-- Generator: Sketch 3.7.1 (28215) - http://www.bohemiancoding.com/sketch -->
    <title>coffee</title>
    <desc>Created with Sketch.</desc>
    <defs></defs>
    <g id="Icons" stroke="none" stroke-width="1" fill="none" fill-rule="evenodd">
        <g id="coffee" fill="#000000">
            <g id="Group" transform="translate(25.500000, 24.500000) scale(1, -1) translate(-25.500000, -24.500000) translate(11.000000, 4.000000)">
                <path d="M6.5961769,40.7845873 C5.62270885,40.1728451 4.79286725,39.5504639 4.34602946,39.0876676 C3.89387217,38.6301908 3.44171488,37.5769303 3.31936644,36.7151717 C3.25553247,36.236417 3.33000543,35.8800106 3.64385579,35.2310319 C3.8193992,34.8799451 3.92578915,34.7363187 4.23963951,34.4597048 C4.44709991,34.2788419 4.8939377,33.8479626 5.23438554,33.5128342 C5.57483338,33.1777059 6.10146363,32.7202291 6.40467499,32.5021297 C7.67603489,31.5818566 8.32501358,30.7360565 8.61758595,29.6189621 C8.79312936,28.9487054 8.75589288,28.4699506 8.46332052,27.714582 C8.36225007,27.4379681 7.75050785,26.549612 7.55900594,26.3953466 C7.441977,26.2995956 7.38878202,26.0283013 7.46857449,25.9325503 C7.62815941,25.7410484 7.88349529,25.8580773 9.03782625,26.645363 C10.1070452,27.3688146 10.6123975,27.8262914 11.0219988,28.4327141 C11.9741889,29.8477005 11.5433096,31.2786453 9.64424896,33.039399 C9.01654826,33.6192242 8.59098846,33.959672 7.48453298,34.7629161 C6.76108132,35.2842269 6.46850896,35.6140357 6.19721458,36.193861 C6.01635167,36.5715453 5.87272524,37.1939265 5.87272524,37.5716108 C5.87272524,38.332299 6.36211901,39.5664224 6.95258323,40.289874 C7.16004363,40.5345709 7.16536313,40.5558489 7.09089016,40.6888364 C7.00045871,40.8431018 6.76640082,40.8909773 6.5961769,40.7845873 L6.5961769,40.7845873 Z" id="Shape"></path>
                <path d="M13.4742872,40.6037244 C11.6603385,39.4600324 10.7081485,38.3588965 10.4740906,37.15669 C10.3091862,36.3002509 10.6123975,35.3321024 11.3039322,34.4969413 C11.665658,34.0607425 12.4635826,33.3213323 12.9423374,32.9808845 C13.5434406,32.5553247 14.2988093,31.9435825 14.6073401,31.6350516 C15.0382194,31.2041723 15.5701692,30.3743307 15.7137956,29.9221734 C15.8733805,29.4115017 15.910617,28.68805 15.7989076,28.2571707 C15.7244346,27.9539593 15.4425012,27.3103002 15.2775968,27.0496448 C15.2403603,26.9911303 15.0701364,26.7836699 14.905232,26.5868485 C14.5967011,26.2357617 14.5275477,26.0495792 14.6605351,25.9165918 C14.7722446,25.8048824 14.9903439,25.8474383 15.3148333,26.0602182 C15.4903767,26.1719277 15.7669906,26.3474711 15.9265755,26.4538611 C17.096865,27.2092297 17.7618021,27.7837354 18.1767229,28.4220751 C18.5863243,29.0391368 18.6607972,29.2785142 18.6607972,29.9221734 C18.6554777,30.3796502 18.6341997,30.5073181 18.5065318,30.826488 C18.038416,31.9861385 16.6127907,33.4277223 14.5488257,34.8161111 C14.1445438,35.0874055 13.6711086,35.6033968 13.4689677,35.9917201 C13.1285198,36.6406988 13.0806443,36.8215617 13.0859638,37.5290548 C13.0912833,38.4812449 13.2668268,38.9919167 13.9370834,40.0132602 C14.1232659,40.2951935 14.2775313,40.5611684 14.2775313,40.6037244 C14.2775313,40.7101143 14.1019879,40.8537408 13.9743199,40.8537408 C13.921125,40.8537408 13.6923866,40.7420313 13.4742872,40.6037244 L13.4742872,40.6037244 Z" id="Shape"></path>
                <path d="M0.409601307,22.7142543 C0.053194975,22.5706279 0,22.0652756 0,18.8310211 C0,16.7883341 0.0159584925,16.1499944 0.0904314575,15.5063352 C0.351086835,13.1976733 0.627700705,11.8199234 1.16496995,10.1070452 C1.2713599,9.7719169 1.37774985,9.41019107 1.40434734,9.30912062 C1.43094483,9.20805017 1.54797377,8.86228283 1.67032221,8.53779348 C1.78735116,8.21862363 1.93097759,7.83561981 1.98949206,7.68667388 C2.29802292,6.84619328 3.37256141,4.70775529 4.05345709,3.56406332 C4.69179679,2.49484433 5.87804473,0.856439097 6.43659197,0.27661387 L6.70256685,0 L10.9422064,0 C14.7190496,0 15.1978044,0.010638995 15.3148333,0.08511196 C15.6659201,0.313850352 17.2404914,2.44696885 17.8894701,3.56406332 C18.017138,3.78216272 18.1926814,4.08537408 18.2831129,4.22900051 C18.4905733,4.57476785 18.9852866,5.48972142 19.128913,5.79825227 C19.6608628,6.95790273 19.8364062,7.34622604 19.9800326,7.72391037 C20.3045219,8.59098846 20.5119824,9.18145268 20.6662478,9.67084645 C20.7566792,9.94214082 20.8577497,10.1761987 20.8896667,10.1921572 C20.9269032,10.2027962 21.1450026,10.1283232 21.3737409,10.0272528 C21.9801637,9.74531942 22.3525285,9.63892947 22.9802292,9.569776 C23.8845438,9.47402504 24.7782193,9.61233198 25.4750735,9.96341881 C26.2304422,10.3411031 26.7943089,10.7879409 27.2890222,11.4050026 C27.6986235,11.9209939 27.9911958,12.4954996 28.2092952,13.2402293 C28.3635607,13.7562205 28.3741997,13.846652 28.3741997,14.6232986 C28.3688802,15.8733805 28.2092952,16.5064007 27.6454285,17.4426323 C27.1985907,18.1980009 26.549612,18.8203821 25.8208409,19.214025 C25.51231,19.3789294 25.0495137,19.5810703 24.7835388,19.6608628 C24.3526595,19.7938502 24.2249916,19.8098087 23.5334569,19.8151282 C23.0440632,19.8151282 22.6504203,19.7885307 22.4589184,19.7406552 C22.0120806,19.6289458 21.9908027,19.6608628 21.9854832,20.4215509 C21.9854832,20.7619987 21.9535662,21.3471435 21.9163297,21.7195083 C21.8471762,22.379126 21.8418567,22.411043 21.6769523,22.5706279 L21.5120479,22.7408518 L11.0166793,22.7514908 C5.04288363,22.7568103 0.478754775,22.7408518 0.409601307,22.7142543 L0.409601307,22.7142543 Z M24.4696885,17.4373128 C25.0069577,17.2245329 25.4218785,16.8681266 25.7942434,16.3042598 C26.3049151,15.5329327 26.4272636,14.7616056 26.1772472,13.8945275 C26.0229818,13.3678972 25.7782849,12.9476569 25.3952811,12.5540141 C25.0282357,12.1763298 24.7090659,11.9901474 24.1558381,11.8305624 C23.6238884,11.676297 23.363233,11.6709775 22.8525612,11.8146039 C22.3844455,11.9475914 22.0280391,12.1337738 21.7301473,12.4103877 C21.4801309,12.6444456 21.4588529,12.7721135 21.5865208,13.4210922 C21.6982303,13.9849589 21.8737737,15.3946258 21.9376077,16.2776623 C21.9695247,16.7032221 22.0067611,17.0915455 22.0227196,17.1447404 C22.0546366,17.2511304 22.4801964,17.4798688 22.7727688,17.5490222 C22.8844782,17.5756197 23.2196066,17.5968977 23.5121789,17.6022172 C24.0015727,17.6075367 24.0920042,17.5915782 24.4696885,17.4373128 L24.4696885,17.4373128 Z M3.56938282,15.7723101 C3.75024574,15.6499616 3.89387217,15.3893063 3.93110865,15.1073729 C4.23432001,12.830628 4.98968865,10.1868377 5.90996172,8.19202615 C6.5908574,6.72384484 6.73448383,6.46318946 7.75050785,4.83542323 C8.14947017,4.19708353 8.20266514,3.95770614 8.00052424,3.63321679 C7.89413429,3.45767337 7.60156192,3.29808845 7.38346253,3.29808845 C7.18132162,3.29808845 6.92066624,3.45767337 6.78235931,3.65981428 C6.23445107,4.48433639 5.77165478,5.25566353 5.46844343,5.83548875 C5.27162202,6.20785358 5.02692514,6.67064986 4.93117418,6.86215177 C4.69711629,7.29835057 4.0481376,8.82504635 3.85131619,9.38891308 C3.53214634,10.3251446 3.36724192,10.8677334 3.13850352,11.7560895 C2.80869468,13.0434079 2.52144181,14.6020206 2.52144181,15.0967339 C2.52144181,15.7084761 3.09594754,16.0808409 3.56938282,15.7723101 L3.56938282,15.7723101 Z" id="Shape"></path>
            </g>
        </g>
    </g>
</svg>