<?xml version="1.0" encoding="UTF-8" standalone="no"?>
<svg width="48px" height="48px" viewBox="0 0 48 48" version="1.1" xmlns="http://www.w3.org/2000/svg" xmlns:xlink="http://www.w3.org/1999/xlink">
    <!-- Generator: Sketch 3.7.1 (28215) - http://www.bohemiancoding.com/sketch -->
    <title>comment</title>
    <desc>Created with Sketch.</desc>
    <defs></defs>
    <g id="Icons" stroke="none" stroke-width="1" fill="none" fill-rule="evenodd">
        <g id="comment" fill="#000000">
            <g id="Group" transform="translate(4.000000, 7.000000)">
                <path d="M20,6.25 C20.345,6.25 20.625,6.53 20.625,6.875 C20.625,7.22 20.34375,7.5 20,7.5 C13.34125,7.5 7.5,11.005 7.5,15 C7.5,15.345 7.22,15.625 6.875,15.625 C6.53,15.625 6.25,15.345 6.25,15 C6.25,10.2575 12.54625,6.25 20,6.25 L20,6.25 Z M20,5.92118946e-15 C8.95375,5.92118946e-15 0,6.71625 0,15 C0,20.15875 3.47375,24.7075 8.76,27.4075 C8.76,27.44125 8.75,27.46375 8.75,27.5 C8.75,29.74125 7.07625,32.15375 6.34,33.42 L6.3425,33.42 C6.28375,33.5575 6.25,33.70875 6.25,33.8675 C6.25,34.4925 6.75625,35 7.3825,35 C7.5,35 7.70625,34.96875 7.70125,34.9825 C11.6075,34.3425 15.2875,30.75375 16.1425,29.71375 C17.39125,29.8975 18.67875,30 20,30 C31.04375,30 40,23.28375 40,15 C40,6.71625 31.045,0 20,0 L20,5.92118946e-15 Z M20,27.5 C18.85375,27.5 17.6775,27.4125 16.505,27.24125 C16.38375,27.22125 16.2625,27.215 16.1425,27.215 C15.4,27.215 14.68875,27.545 14.21,28.1275 C13.675,28.77875 12.1525,30.2325 10.35375,31.30125 C10.84125,30.1825 11.2225,28.92875 11.24875,27.63625 C11.25625,27.55625 11.26,27.475 11.26,27.40625 C11.26,26.46625 10.73375,25.6075 9.8975,25.18 C5.265,22.815 2.5,19.00875 2.5,15 C2.5,8.1075 10.35,2.5 20,2.5 C29.6475,2.5 37.5,8.1075 37.5,15 C37.5,21.8925 29.64875,27.5 20,27.5 L20,27.5 Z" id="Shape"></path>
            </g>
        </g>
    </g>
</svg>