<?xml version="1.0" encoding="UTF-8" standalone="no"?>
<svg width="48px" height="48px" viewBox="0 0 48 48" version="1.1" xmlns="http://www.w3.org/2000/svg" xmlns:xlink="http://www.w3.org/1999/xlink">
    <!-- Generator: Sketch 3.7.1 (28215) - http://www.bohemiancoding.com/sketch -->
    <title>link</title>
    <desc>Created with Sketch.</desc>
    <defs></defs>
    <g id="Icons" stroke="none" stroke-width="1" fill="none" fill-rule="evenodd">
        <g id="link">
            <g id="Group" transform="translate(4.000000, 4.000000)">
                <g id="icomoon-ignore"></g>
                <path d="M17.1967188,24.8345833 C16.6767708,24.8345833 16.1570313,24.6363021 15.7604167,24.2396354 C12.0442188,20.5233854 12.0442188,14.4766146 15.7604167,10.7603646 L23.2604167,3.26036458 C25.0607292,1.46015625 27.4541667,0.46875 30,0.46875 C32.5458333,0.46875 34.939375,1.46015625 36.7396875,3.2603125 C40.4557813,6.9765625 40.4557813,13.0233854 36.7396875,16.7396354 L33.3113542,20.1680208 C32.5180729,20.9613021 31.2320313,20.9613021 30.4386979,20.1680208 C29.6454688,19.3748438 29.6454688,18.0886458 30.4386979,17.2953646 L33.8670313,13.8669792 C35.9992188,11.7346875 35.9992188,8.26526042 33.8670313,6.13296875 C32.8341146,5.10005208 31.4607813,4.53125 30,4.53125 C28.5392188,4.53125 27.1659375,5.10010417 26.1329688,6.13302083 L18.6329688,13.6329167 C16.5006771,15.7652083 16.5006771,19.2347396 18.6329688,21.3669792 C19.42625,22.1602083 19.4261458,23.4463542 18.6329688,24.2396354 C18.2364583,24.6361979 17.7165104,24.8345833 17.1967188,24.8345833 L17.1967188,24.8345833 Z" id="Shape" fill="#000000"></path>
                <path d="M10,39.53125 C7.4540625,39.53125 5.06057292,38.5398438 3.26041667,36.7396875 C-0.455729167,33.0234375 -0.455729167,26.9766667 3.26041667,23.2604167 L6.68869792,19.8321354 C7.48197917,19.0389583 8.768125,19.0389583 9.56135417,19.8321354 C10.3546354,20.6253646 10.3546354,21.9115104 9.56135417,22.7047917 L6.13307292,26.1330729 C4.00083333,28.2653646 4.00083333,31.7348437 6.13307292,33.8671354 C7.16588542,34.8999479 8.53927083,35.46875 10,35.46875 C11.4607292,35.46875 12.8340625,34.8998958 13.8670833,33.8669271 L21.3670833,26.3670312 C23.4992708,24.2347396 23.4992708,20.7652604 21.3670833,18.6329687 C20.5738021,17.8396875 20.5738542,16.5535938 21.3670833,15.7603125 C22.1603125,14.9671354 23.4464583,14.9671354 24.2397396,15.7604167 C27.9558333,19.4766146 27.9558333,25.5233854 24.2397917,29.2396354 L16.7396875,36.7396354 C14.9393229,38.5399479 12.5457812,39.5313021 9.99989583,39.5313021 L10,39.53125 Z" id="Shape" fill="#000000"></path>
            </g>
        </g>
    </g>
</svg>