<?xml version="1.0" encoding="UTF-8" standalone="no"?>
<svg width="48px" height="48px" viewBox="0 0 48 48" version="1.1" xmlns="http://www.w3.org/2000/svg" xmlns:xlink="http://www.w3.org/1999/xlink">
    <!-- Generator: Sketch 3.7.1 (28215) - http://www.bohemiancoding.com/sketch -->
    <title>search</title>
    <desc>Created with Sketch.</desc>
    <defs></defs>
    <g id="Icons" stroke="none" stroke-width="1" fill="none" fill-rule="evenodd">
        <g id="search">
            <g id="Group" transform="translate(4.000000, 4.000000)">
                <g id="icomoon-ignore"></g>
                <path d="M15.5811979,6.66666667 C20.4542188,6.66666667 24.4191146,10.6543229 24.4191146,15.5555729 C24.4191146,17.4013021 23.8527083,19.1780729 22.780625,20.6933333 L21.9104167,21.9222396 L20.6885938,22.79625 C19.1825521,23.8747917 17.4159896,24.4444271 15.5811458,24.4444271 C10.7069792,24.4444271 6.74322917,20.4567708 6.74322917,15.5555208 C6.74322917,10.6542708 10.7070833,6.66661458 15.5811458,6.66661458 L15.5811979,6.66666667 Z M15.5811979,2.22223958 C8.25916667,2.22223958 2.32385417,8.19177083 2.32385417,15.5555729 C2.32385417,22.919375 8.25921875,28.8889062 15.5811979,28.8889062 C18.4425521,28.8889062 21.0846875,27.9681771 23.2504688,26.4176562 L33.8971354,37.125625 C34.3300521,37.5607812 34.8965104,37.7777604 35.4629167,37.7777604 C36.0293229,37.7777604 36.5956771,37.5607292 37.0275521,37.125625 C37.8923438,36.2563021 37.8923438,34.8470312 37.0275521,33.9778646 L26.3808854,23.2698958 C27.9227604,21.0910417 28.8375,18.4332292 28.8375,15.5555729 C28.8375,8.19177083 22.9021354,2.22223958 15.5811458,2.22223958 L15.5811458,2.22223958 L15.5811979,2.22223958 Z" id="Shape" fill="#000000"></path>
            </g>
        </g>
    </g>
</svg>