<?xml version="1.0" encoding="UTF-8" standalone="no"?>
<svg width="48px" height="48px" viewBox="0 0 48 48" version="1.1" xmlns="http://www.w3.org/2000/svg" xmlns:xlink="http://www.w3.org/1999/xlink">
    <!-- Generator: Sketch 3.7.1 (28215) - http://www.bohemiancoding.com/sketch -->
    <title>settings</title>
    <desc>Created with Sketch.</desc>
    <defs></defs>
    <g id="Icons" stroke="none" stroke-width="1" fill="none" fill-rule="evenodd">
        <g id="settings" fill="#000000">
            <g id="Group" transform="translate(4.000000, 4.000000)">
                <path d="M35.2814123,21.96 C35.3636566,21.32 35.4253398,20.68 35.4253398,20 C35.4253398,19.32 35.3636566,18.68 35.2814123,18.04 L39.6197969,14.74 C40.0104571,14.44 40.1132624,13.9 39.8665297,13.46 L35.7543168,6.54 C35.507584,6.1 34.9524353,5.94 34.5000919,6.1 L29.3803868,8.1 C28.3112115,7.3 27.1597918,6.64 25.9055669,6.14 L25.1242465,0.84 C25.0625633,0.36 24.6307809,0 24.1167543,0 L15.8923285,0 C15.3783019,0 14.9465196,0.36 14.8848364,0.84 L14.1035159,6.14 C12.849291,6.64 11.6978714,7.32 10.628696,8.1 L5.50899098,6.1 C5.0360865,5.92 4.50149882,6.1 4.25476605,6.54 L0.142553158,13.46 C-0.12474068,13.9 -0.00137429346,14.44 0.389285931,14.74 L4.72767053,18.04 C4.64542627,18.68 4.58374308,19.34 4.58374308,20 C4.58374308,20.66 4.64542627,21.32 4.72767053,21.96 L0.389285931,25.26 C-0.00137429346,25.56 -0.104179616,26.1 0.142553158,26.54 L4.25476605,33.46 C4.50149882,33.9 5.05664756,34.06 5.50899098,33.9 L10.628696,31.9 C11.6978714,32.7 12.849291,33.36 14.1035159,33.86 L14.8848364,39.16 C14.9465196,39.64 15.3783019,40 15.8923285,40 L24.1167543,40 C24.6307809,40 25.0625633,39.64 25.1242465,39.16 L25.9055669,33.86 C27.1597918,33.36 28.3112115,32.68 29.3803868,31.9 L34.5000919,33.9 C34.9729963,34.08 35.507584,33.9 35.7543168,33.46 L39.8665297,26.54 C40.1132624,26.1 40.0104571,25.56 39.6197969,25.26 L35.2814123,21.96 L35.2814123,21.96 Z M20.0045414,27 C16.036256,27 12.8081689,23.86 12.8081689,20 C12.8081689,16.14 16.036256,13 20.0045414,13 C23.9728269,13 27.200914,16.14 27.200914,20 C27.200914,23.86 23.9728269,27 20.0045414,27 L20.0045414,27 Z" id="Shape"></path>
            </g>
        </g>
    </g>
</svg>