<?xml version="1.0" encoding="UTF-8" standalone="no"?>
<svg width="48px" height="48px" viewBox="0 0 48 48" version="1.1" xmlns="http://www.w3.org/2000/svg" xmlns:xlink="http://www.w3.org/1999/xlink">
    <!-- Generator: Sketch 3.7.1 (28215) - http://www.bohemiancoding.com/sketch -->
    <title>timer</title>
    <desc>Created with Sketch.</desc>
    <defs></defs>
    <g id="Icons" stroke="none" stroke-width="1" fill="none" fill-rule="evenodd">
        <g id="timer" fill="#000000">
            <g id="Group" transform="translate(24.000000, 24.000000) scale(1, -1) translate(-24.000000, -24.000000) translate(4.000000, 4.000000)">
                <path d="M17.9278937,39.8326996 C15.5521822,39.6425856 12.0683112,38.5247148 10.0721063,37.3003802 C9.92789374,37.21673 9.75332068,37.1178707 9.69259962,37.0874525 C9.58633776,37.0342205 8.33396584,36.1901141 7.81783681,35.8174905 C6.89943074,35.148289 5.5711575,33.8631179 4.56166983,32.6539924 C4.08349146,32.0836502 2.9829222,30.5323194 2.83870968,30.2205323 C2.80834915,30.1596958 2.70967742,29.9847909 2.62618596,29.8403042 C1.75332068,28.4106464 0.865275142,26.1064639 0.485768501,24.3269962 C-0.166982922,21.2547529 -0.159392789,18.4714829 0.516129032,15.4676806 C1.65464896,10.4030418 4.80455408,5.9391635 9.19924099,3.14068441 C10.2239089,2.47908745 10.1631879,2.51711027 11.0588235,2.08365019 C12.3567362,1.44486692 12.7893738,1.26996198 13.7912713,0.950570342 C15.5749526,0.380228137 16.8349146,0.144486692 18.7096774,0.0380228137 C20.5996205,-0.0684410646 22.914611,0.106463878 24.3795066,0.456273764 C25.5483871,0.737642586 26.626186,1.09505703 26.7855787,1.23954373 C26.9297913,1.36882129 26.8994307,1.46768061 26.0493359,3.68060837 C25.9127135,4.03802281 25.7533207,4.45627376 25.7001898,4.60836502 C25.5787476,4.9581749 25.5332068,4.96577947 24.5768501,4.67680608 C22.3074004,4 20.0227704,3.81749049 17.8140417,4.12927757 C16.5768501,4.30418251 16.3263757,4.36501901 14.9677419,4.79847909 C13.3814042,5.30038023 11.6736243,6.19011407 10.3757116,7.17870722 C7.63567362,9.27756654 5.58633776,12.2129278 4.65275142,15.391635 C3.9544592,17.7414449 3.96204934,17.7186312 3.9772296,20.0304183 L3.99240987,21.9695817 L4.30360531,23.1863118 C4.73624288,24.8593156 5.07779886,25.8403042 5.61669829,26.9429658 C7.19544592,30.1673004 9.88235294,32.8441065 13.0702087,34.365019 C15.2106262,35.3840304 17.5863378,35.9239544 19.9392789,35.9239544 C23.6432638,35.9239544 27.1726755,34.6463878 30.1024668,32.243346 C30.2087287,32.1520913 30.4971537,31.8935361 30.7476281,31.6577947 C31.1271347,31.2927757 31.1802657,31.21673 31.1119545,31.0874525 C31.0664137,31.0114068 30.170778,30.0912548 29.1233397,29.0418251 C28.0075901,27.9315589 27.2333966,27.095057 27.2409867,27.026616 C27.2637571,26.9277567 27.8785579,26.9125475 32.6375712,26.8897338 C37.9278937,26.8745247 38.0037951,26.8745247 38.1555977,27.026616 C38.3074004,27.1787072 38.3074004,27.2547529 38.2922201,32.5551331 C38.2694497,37.3307985 38.2542694,37.9391635 38.1555977,37.9619772 C38.0796964,37.9695817 37.2447818,37.1863118 36.1062619,36.0380228 C35.0436433,34.973384 34.1404175,34.0988593 34.0948767,34.0988593 C34.056926,34.0988593 33.8595825,34.243346 33.6698292,34.4258555 C33.1157495,34.9353612 32.3795066,35.5589354 31.9316888,35.8935361 C31.142315,36.4714829 30.9829222,36.5779468 30.2922201,37.0038023 C28.1518027,38.3193916 25.8519924,39.1787072 23.0512334,39.6958175 C22.4212524,39.8098859 18.8690702,39.9087452 17.9278937,39.8326996 L17.9278937,39.8326996 Z" id="Shape"></path>
                <path d="M16.629981,31.8859316 C16.5085389,31.8479087 16.3187856,31.7338403 16.2125237,31.6197719 L16.0303605,31.4220532 L16.0303605,24.0304183 C16.0303605,17.1178707 16.0379507,16.6235741 16.1593928,16.4334601 C16.2352941,16.3269962 16.3719165,16.1901141 16.4629981,16.1368821 C16.5996205,16.0684411 18.3377609,16.0456274 24,16.0380228 L31.3624288,16.0304183 L31.5749526,16.2357414 L31.7798861,16.4410646 L31.7798861,17.6882129 C31.7798861,18.3726236 31.8026565,19.0494297 31.8254269,19.2015209 C31.8633776,19.4220532 31.8330171,19.513308 31.6812144,19.6882129 L31.4914611,19.9087452 L25.7760911,19.9315589 C22.626186,19.9391635 20.0379507,19.9467681 20.0151803,19.9467681 C19.9924099,19.9543726 19.9772296,22.5323194 19.9772296,25.6730038 C19.9772296,31.2775665 19.9772296,31.4068441 19.8254269,31.6045627 C19.7267552,31.7338403 19.5597723,31.8326996 19.3472486,31.878327 C18.9449715,31.9695817 16.9487666,31.9695817 16.629981,31.8859316 L16.629981,31.8859316 Z" id="Shape"></path>
                <path d="M37.3510436,20.8669202 C36.6375712,20.8365019 36.0075901,20.7908745 35.9620493,20.7604563 C35.9089184,20.7224335 35.8785579,20.3954373 35.8785579,19.8326996 C35.8785579,19.3536122 35.8406072,18.6311787 35.7874763,18.2357414 C35.6888046,17.3840304 35.6660342,17.4144487 36.4478178,17.2927757 C37.9886148,17.0646388 38.5426945,16.973384 38.9677419,16.8821293 C39.6812144,16.730038 39.6660342,16.7148289 39.7950664,18.2889734 C39.9165085,19.8935361 39.9240987,20.6007605 39.8254269,20.7984791 C39.7343454,20.9581749 39.7039848,20.9657795 37.3510436,20.8669202 L37.3510436,20.8669202 Z" id="Shape"></path>
                <path d="M34.1024668,12.6463878 C33.7001898,11.8403042 33.373814,11.1787072 33.373814,11.1634981 C33.373814,11.1406844 33.7609108,10.8821293 34.2314991,10.5703422 C34.6944972,10.2661597 35.4079696,9.80228137 35.8026565,9.54372624 C36.1973435,9.2851711 36.5540797,9.08745247 36.5996205,9.1026616 C36.9032258,9.20152091 38.5426945,12.4030418 38.4364326,12.6920152 C38.4060721,12.7528517 38.3225806,12.8288973 38.2542694,12.851711 C38.1783681,12.8821293 37.7457306,13.0494297 37.2827324,13.2243346 C35.2789374,14.0076046 35.0360531,14.0988593 34.9373814,14.0988593 C34.8766603,14.0988593 34.5351044,13.5057034 34.1024668,12.6463878 L34.1024668,12.6463878 Z" id="Shape"></path>
                <path d="M30.4743833,7.99239544 C30.1252372,7.68060837 29.5635674,7.2243346 29.2220114,6.9581749 C28.8728653,6.69961977 28.5920304,6.47908745 28.5920304,6.46387833 C28.5920304,6.4486692 28.7969639,6.11406844 29.0474383,5.72623574 C29.2903226,5.33079848 29.7381404,4.62357414 30.0417457,4.15209125 C30.3377609,3.6730038 30.626186,3.26996198 30.686907,3.24714829 C30.8159393,3.20152091 31.1954459,3.42965779 31.9772296,4.02281369 C32.9791271,4.79847909 33.9051233,5.62737643 33.9051233,5.75665399 C33.9051233,5.84790875 31.2485769,8.54752852 31.1574953,8.54752852 C31.1271347,8.54752852 30.8159393,8.29657795 30.4743833,7.99239544 L30.4743833,7.99239544 Z" id="Shape"></path>
            </g>
        </g>
    </g>
</svg>