<?xml version="1.0" encoding="UTF-8" standalone="no"?>
<svg width="541px" height="367px" viewBox="0 0 541 367" version="1.1" xmlns="http://www.w3.org/2000/svg" xmlns:xlink="http://www.w3.org/1999/xlink">
    <!-- Generator: Sketch 3.7.1 (28215) - http://www.bohemiancoding.com/sketch -->
    <title>bitx-logo</title>
    <desc>Created with Sketch.</desc>
    <defs>
        <filter x="-50%" y="-50%" width="200%" height="200%" filterUnits="objectBoundingBox" id="filter-1">
            <feOffset dx="0" dy="12" in="SourceAlpha" result="shadowOffsetOuter1"></feOffset>
            <feColorMatrix values="0 0 0 0 0.749019608   0 0 0 0 0.749019608   0 0 0 0 0.749019608  0 0 0 0.5 0" type="matrix" in="shadowOffsetOuter1" result="shadowMatrixOuter1"></feColorMatrix>
            <feMerge>
                <feMergeNode in="shadowMatrixOuter1"></feMergeNode>
                <feMergeNode in="SourceGraphic"></feMergeNode>
            </feMerge>
        </filter>
    </defs>
    <g id="Logo" stroke="none" stroke-width="1" fill="none" fill-rule="evenodd">
        <g id="bitx-logo" fill="#525252">
            <g id="Group" filter="url(#filter-1)" transform="translate(270.500000, 180.000000) scale(1, -1) translate(-270.500000, -180.000000) translate(16.000000, 16.000000)">
                <path d="M110.453681,326.449707 C104.593708,325.836976 99.8239625,324.066863 97.234672,321.615937 C95.8037483,320.18623 92.669344,315.760947 89.9437751,311.131421 C87.3544846,306.706138 78.2238286,287.439138 78.2238286,286.349837 C78.2238286,286.009431 73.8629183,274.844102 73.454083,274.163289 C72.6364123,272.733582 65.4817938,251.356062 64.9366801,249.858274 C64.4597055,248.360486 63.5057564,245.296829 62.8925033,243.050147 C62.2111111,240.803465 61.3934404,238.216377 61.0527443,237.33132 C60.7120482,236.378182 60.1669344,234.403825 59.8262383,232.906037 C59.5536814,231.340168 58.9404284,229.229649 58.5997323,228.072267 C58.1908969,226.982966 57.3732262,224.191634 56.7599732,221.944952 C56.1467202,219.69827 51.1725569,200.227026 50.6274431,198.252669 C50.0823293,196.210231 43.6091031,166.322552 42.1100402,157.267742 C41.6330656,154.680654 41.0198126,151.412753 40.6791165,150.119208 C40.3384203,148.825664 39.7251673,145.149276 39.3844712,141.949456 C39.0437751,138.749636 38.4305221,134.937084 38.089826,133.439296 C37.1358768,129.490583 35.7049531,117.712522 34.0696118,100.079472 C33.3200803,91.9097195 32.0935743,89.5268749 26.0291834,84.4207794 C12.196921,72.8469628 0.0161117259,43.5720149 0.0161117254,34.4251806 C0.0161117249,25.2783463 3.13440526,9.20516736 23.3036145,3.67638878 C43.4728237,-1.8523898 73.4540854,1.39621445 79.7910308,2.99557604 C80.9662379,3.29218285 88.575581,3.74447005 113.315529,14.2970675 C138.055477,24.8496649 146.976305,33.2917428 151.473494,36.6958065 C166.804819,48.1334605 190.108434,73.1873692 194.946319,83.3995603 C195.218876,83.9442105 196.036546,85.3739172 196.786078,86.4632176 C198.421419,88.9822247 202.918608,98.1731967 202.918608,98.9901719 C202.918608,99.3305783 206.734404,108.793875 208.506024,117.099791 C209.323695,121.252748 208.506014,131.737269 207.756493,134.664759 C207.006971,137.59225 204.417671,143.243 200.397456,148.485258 C198.421419,151.140428 196.786078,153.999841 196.786078,154.748735 C196.786078,156.450767 214.200184,162.918488 217.772959,164.007788 C221.345733,165.097089 233.921954,167.207608 235.080321,165.777901 C236.579384,163.939707 236.443106,160.399481 234.671486,156.586929 C233.717537,154.544491 230.242436,143.515325 228.402677,136.707198 C223.701071,119.414554 222.8834,115.874328 221.929451,108.930038 C221.520616,106.34295 218.795044,88.7098983 218.181794,83.6038041 C217.568543,78.4977099 217.159705,77.2041644 217.432262,65.2218602 C217.772959,50.3120613 218.454351,44.7974781 220.975502,37.6489444 C223.019679,31.9981986 228.402677,26.8921031 232.491031,26.8921031 C238.282865,26.8921031 252.115127,39.6913826 266.151807,58.1414077 C267.719009,60.2519272 273.033869,66.5834857 274.124096,68.0812737 C278.825703,74.617076 282.232664,76.7956767 283.799866,74.4128321 C284.072423,73.9362632 283.969034,66.9202237 284.34498,58.8903017 C285.122715,42.2784692 286.729853,39.55522 286.729853,39.55522 C291.431459,30.2961668 298.722356,26.7559406 310.306024,28.1856473 C319.164123,29.2749477 327.613387,34.5172058 335.176841,43.6400964 C337.561714,46.4995099 339.128103,48.2015431 346.896787,58.2775703 C354.024325,68.081273 380.353146,108.113063 381.988487,110.495907 C383.555689,112.878752 390.642169,124.792975 392.209371,126.495007 C396.161446,130.647964 399.500268,127.516226 401.203748,117.984847 C401.544444,116.146653 405.187566,102.084341 406.382329,98.3774405 C406.927443,96.6754086 407.336278,93.9521577 407.336278,92.2501259 C407.336278,87.0759491 405.019545,83.3995603 389.824498,63.928316 C387.03079,60.456171 372.380857,44.1166654 370.881794,42.278471 C365.566934,35.7426687 347.169344,21.1051948 338.651941,16.6799121 C334.495448,14.5013113 332.860107,12.186548 333.405221,9.19097195 C334.154752,5.10609553 336.062651,3.74447005 340.968675,3.74447005 C344.443775,3.74447005 346.010977,4.1529577 349.554217,5.99115208 C358.139759,10.4164349 368.633199,18.0415375 381.102677,28.86646 C391.732396,38.057432 392.958902,39.2148136 402.157697,48.2015418 C406.723025,52.6268246 411.152075,56.5755384 412.106024,56.9840261 C415.444846,58.4137328 418.374833,57.460595 419.669478,54.465019 C420.010174,53.7161249 422.599465,48.9504358 423.825971,46.2952661 C428.391299,36.7638878 434.796386,28.9345413 438.067068,28.9345413 C442.359839,28.9345413 452.921419,38.5340009 461.5751,50.3801425 C469.956225,61.8177965 470.773896,62.9751782 477.928514,73.5277756 C494.96332,98.8540094 499.32423,105.185568 502.86747,109.951257 C504.911647,112.742589 507.023963,115.738165 507.432798,116.623222 C507.841633,117.440197 510.158367,120.027286 507.909772,120.435773 C504.434672,121.116586 502.663052,120.027286 498.50656,114.92119 C496.394244,112.402183 490.466131,105.389812 488.353815,102.802723 C486.241499,100.147554 466.344846,77.3403269 463.891834,74.5489947 C453.330254,62.3624467 449.923293,59.6391958 446.857028,60.5923336 C443.654485,61.6135527 439.838688,72.0980688 439.770549,79.9954966 C439.70241,85.1696734 439.906827,86.0547299 441.542169,88.5737371 C442.564257,90.1396064 444.06332,92.1820446 444.94913,93.1351824 C447.061446,95.3818644 457.623025,108.181144 459.462784,110.63207 C461.302544,113.082996 471.046452,125.337625 472.477376,127.516226 C473.976439,129.626745 482.970817,142.085618 482.970817,142.289862 C482.970817,142.562187 492.033333,156.791173 493.123561,158.425124 C495.576573,162.169594 498.165863,166.662958 500.005622,170.543591 C501.436546,173.539167 502.049799,174.900792 504.366533,180.279213 C504.979786,181.708919 505.45676,184.636414 505.45676,186.746934 C505.45676,190.423323 505.252343,190.83181 502.935609,193.078492 C501.504685,194.372036 499.119813,196.005987 497.62075,196.754881 C496.121687,197.435694 494.350067,198.252669 493.668675,198.593075 C491.897055,199.478132 484.810576,200.090863 482.085007,199.546213 C479.427577,199.069644 474.044578,194.644361 472.545515,191.784948 C470.160643,187.08734 463.210442,174.76463 461.847657,172.586029 C461.438822,172.041379 456.396519,163.531219 456.396519,163.395057 C456.396519,163.258894 452.648862,156.927336 448.083534,149.302233 C440.111245,136.026385 433.50174,126.290763 432.411513,126.290763 C430.776171,126.290763 430.162918,130.171395 429.754083,144.3323 C429.277108,162.169594 427.331383,167.343767 418.228736,173.04119 C409.126089,178.738613 397.991776,182.26794 393.912851,182.593976 C390.301473,182.866301 389.347523,182.662057 387.575904,181.436594 C385.054752,179.666481 384.986613,178.100612 387.098929,171.632891 C387.984739,168.977721 389.211245,164.960926 389.892637,162.714244 C390.50589,160.467562 393.980991,148.144852 394.389826,147.464039 C394.730522,146.715145 395.071218,144.604625 395.071218,142.69835 C395.071218,139.634692 394.798661,139.090042 392.550067,136.911441 C382.056627,127.039657 378.854083,123.635593 373.607363,116.827466 C371.699465,114.512702 368.428782,110.359745 366.316466,107.636494 C364.136011,104.981324 360.524632,100.351797 358.139759,97.3562214 C355.823025,94.3606453 353.574431,91.5693131 353.233735,91.1608255 C352.8249,90.6842566 350.16747,87.4844367 347.373762,84.0122917 C334.495448,68.0131924 324.274565,56.711701 320.663186,54.3969377 C316.84739,52.0140931 314.462517,52.2183369 312.622758,55.1458317 C311.668809,56.6436197 311.259973,58.1414077 311.464391,59.0945456 C311.668809,59.9115208 312.213922,62.1582029 312.622758,63.9963973 C314.462517,71.9619063 319.164123,88.2333307 319.43668,89.5268749 C320.118072,92.5224509 325.978046,108.861957 326.523159,110.08742 C327.068273,111.312882 332.110576,123.907918 332.723829,125.60995 C334.699866,130.784127 334.836145,131.124533 338.78822,140.247424 C339.265194,141.404805 357.799063,181.708919 360.865328,187.08734 C363.522758,191.716867 365.703213,192.874248 372.857831,193.418899 C386.758233,194.440118 394.253548,198.8654 398.887015,208.669104 C402.702811,216.770775 402.83909,217.043101 402.634672,219.970595 C402.566533,221.944952 401.135609,222.421521 395.071218,222.35344 C392.27751,222.35344 388.461714,222.761928 386.553815,223.238496 C383.623829,223.98739 383.146854,224.395878 382.942436,225.961747 C382.806158,227.119129 383.48755,228.821161 384.782195,230.863599 C385.940562,232.565631 391.732396,241.756603 392.618206,242.913985 C393.572155,244.139447 396.570281,249.858274 397.456091,251.560306 C398.41004,253.262338 399.159572,255.100533 399.159572,255.713264 C399.159572,257.483377 396.502142,260.342791 393.844712,261.500172 C391.732396,262.385229 385.575896,263.883011 379.421285,263.883017 C373.266675,263.883022 365.97577,262.317148 362.705087,261.568254 C355.550469,259.866222 354.596519,258.981165 350.099331,249.790193 C347.850736,245.228748 346.010977,241.348115 346.010977,241.143871 C346.010977,240.803465 343.421687,234.880394 340.4917,228.684998 C338.583802,224.668203 331.689703,220.242925 327.068273,220.24292 C322.446843,220.242916 315.484605,214.047524 312.554618,205.128878 C311.191834,200.97592 311.123695,200.43127 312.077644,199.001563 C312.622758,198.116506 313.849264,197.095287 314.735074,196.6868 C315.620884,196.278312 317.256225,195.529418 318.278313,194.984768 C319.368541,194.508199 320.867604,193.214655 321.685274,192.057273 C323.048059,190.150997 323.048059,189.946754 322.025971,186.270365 C320.867604,182.185488 319.709237,178.849506 318.346452,175.649686 C317.869478,174.560386 316.983668,172.245622 316.370415,170.543591 C315.689023,168.841559 306.626506,144.468463 306.081392,143.447244 C305.536278,142.426025 299.335609,125.0653 298.994913,123.907918 C297.087015,117.099791 294.088889,112.129858 283.663588,98.9220907 C278.825703,92.794776 265.470415,77.2722456 263.153681,75.0936449 C260.087416,72.3703939 254.159304,69.1024928 252.046988,69.1024928 C248.163052,69.1024928 246.752507,69.721858 247.140964,78.4977086 C247.52942,87.2735591 253.273494,104.23243 254.023025,106.8876 C254.704418,109.406607 261.995315,128.537445 263.221821,131.737265 C263.903213,133.439296 267.037617,140.723993 267.991566,142.970675 C269.013655,145.217357 270.444578,148.417177 271.19411,150.119208 C271.943641,151.82124 275.623159,159.514424 279.779652,165.70982 C281.414993,168.092665 283.527309,170.883997 284.481258,171.905216 C287.956359,175.649686 291.090763,182.185488 291.090763,185.929958 C291.158902,190.014835 290.068675,191.648785 285.707764,193.895467 C279.166399,197.23145 263.017403,197.503775 256.748594,194.303955 C255.453949,193.691224 252.319545,191.036054 249.798394,188.448966 C246.118876,184.636414 244.619813,183.615195 241.485408,182.662057 C236.238688,181.028107 218.318072,176.39858 217.568541,176.058174 C216.819009,175.717767 193.651673,168.705396 191.675636,167.888421 C190.926104,167.616096 180.909639,164.416276 179.410576,163.803544 C177.161981,162.918488 174.572691,162.714244 163.738554,162.918488 C156.652075,163.05465 150.519545,163.395057 150.246988,163.667382 C149.293039,164.62052 151.064659,166.662958 156.038822,170.203184 C165.578313,177.011312 171.302008,181.436594 174.300134,184.159845 C174.913387,184.704496 177.23012,186.678852 179.410576,188.517047 C187.655422,195.325174 199.17095,207.92021 208.914859,220.719489 C211.231593,223.783147 220.430388,237.807889 221.861312,240.122652 C224.586881,244.547935 228.402677,252.377282 230.514993,257.687621 C231.128246,259.389653 232.014056,261.500172 232.354752,262.45331 C234.398929,267.627487 236.443106,277.839678 236.511245,283.218099 C236.579384,297.583247 227.653146,308.884739 213.139491,312.833453 C207.892771,314.263159 195.082597,314.467403 190.312851,313.173859 C178.047791,309.837877 172.528514,307.727357 166.941098,304.323293 C156.720214,298.059816 150.04257,292.477152 136.8917,279.201303 C130.350335,272.59742 124.762918,267.218999 124.490361,267.218999 C123.400134,267.218999 123.263855,268.512543 124.149665,270.418819 C124.62664,271.440038 125.51245,273.414395 126.125703,274.707939 C127.897323,278.724734 132.053815,287.03065 135.528916,293.43029 C137.368675,296.834353 145.68166,313.718509 146.022356,315.692866 C146.703748,319.913905 145.613521,321.820181 141.32075,323.998781 C139.140295,325.088082 135.460776,326.245464 133.144043,326.58587 C127.28407,327.470926 113.383668,326.722032 110.453681,326.449707 Z M181.114056,276.546134 C181.795448,273.754802 181.085401,267.891448 179.683133,263.134123 C178.280864,258.376798 176.41245,251.356062 170.484337,238.965271 C168.303882,234.471907 164.828782,227.936104 162.784605,224.463959 C160.672289,220.991814 158.628112,217.655832 158.287416,216.975019 C151.269076,205.128878 133.144043,183.410951 123.945248,175.85393 C120.742704,173.130679 117.403882,170.339347 116.586212,169.522371 C114.814592,167.82034 108.109904,162.944 104.38929,161.012212 C100.668677,159.080424 86.87751,151.548915 86.264257,151.004265 C85.1740295,150.051127 85.1740295,149.846883 86.1961178,148.281014 C87.2863454,146.578982 87.4907631,146.578982 92.8056225,146.98747 C95.8718876,147.259795 105.138822,147.600201 113.383668,147.804445 C127.21593,148.07677 128.510576,148.008689 128.919411,146.98747 C129.464525,145.557763 127.420348,143.515325 123.877108,141.881374 C119.37992,139.770855 112.634137,136.639116 111.612048,136.230629 C111.066934,136.026385 110.044846,135.549816 109.431593,135.141328 C106.910442,133.711622 105.615797,133.030809 98.3248996,129.35442 C89.3305221,124.724893 89.1261044,124.656812 87.4226238,123.703674 C86.6730924,123.295187 84.5607764,122.205886 82.6528782,121.252748 C80.8131191,120.367692 77.1336011,118.325254 74.4761714,116.827466 C68.9568942,113.559565 66.5038822,113.287239 64.8685408,115.738165 C63.3694779,118.052929 64.1190094,123.635593 66.9808568,131.737265 C67.7985274,134.120109 68.8206158,137.251848 71.0692102,145.013113 C71.7506024,147.259795 72.7045515,150.051127 73.2496653,151.27659 C73.7266399,152.433972 76.5884873,160.671806 77.2698795,162.373838 C78.4963855,165.641739 84.3563588,177.760206 86.3323963,181.096188 C87.6951807,183.410951 92.1923695,191.512623 94.1002677,195.052849 C94.78166,196.346393 108.81834,219.69827 109.090897,220.24292 C109.363454,220.787571 110.181124,222.217277 110.930656,223.306578 C111.680187,224.463959 112.497858,225.825585 112.770415,226.370235 C113.042972,226.914885 123.195716,242.097009 123.195716,242.301253 C123.195716,242.777822 131.985676,254.555882 133.007764,256.189833 C134.029853,257.755702 137.913788,262.385229 138.731459,263.474529 C147.317001,274.367533 159.036948,284.37548 165.101339,285.873268 C168.235743,286.622162 174.027577,286.554081 176.41245,284.579724 C178.797323,282.605367 180.432664,279.337466 181.114056,276.546134 Z M167.145515,127.516226 C168.084154,123.368738 168.063528,122.814404 167.077376,117.644441 C166.091225,112.474477 164.07925,107.091844 164.07925,106.683356 C164.07925,105.798299 157.94672,95.6541895 157.94672,95.3818644 C157.94672,95.1095393 156.038822,92.3862884 153.790228,89.3226311 C147.180723,80.5401468 129.668942,63.5879096 119.107363,55.7585632 C110.385542,49.2908422 97.4390897,41.2572519 96.2807229,40.5764391 C92.4649264,38.1255133 85.7415628,33.2930085 65.6180723,25.1900713 C45.4945818,17.087134 37.0677376,15.3182866 28.4821954,15.182124 C20.9187416,15.1140428 18.7527741,17.5088707 17.2392236,19.6754881 C15.725673,21.8421055 14.7180723,22.7525228 14.7180723,27.5729158 C14.7180723,32.3933089 17.1029451,41.801902 23.5761714,52.8310684 C30.7307898,64.8133726 32.5705489,65.0856976 35.97751,54.8054253 C38.8393574,46.1591036 43.8135207,40.5083578 48.446988,40.5083578 C51.1044177,40.5083578 54.6476573,42.7550399 56.2829987,45.4782908 C57.5776439,47.520729 57.6457831,48.6781107 57.305087,64.7452913 C56.8281124,85.4419985 57.0325301,86.9397865 60.3713521,90.6842566 C62.3473896,92.8628573 80.1317269,104.640918 81.7670683,105.730218 C86.4686747,108.725794 87.3544846,109.202363 88.7854083,109.951257 C89.5349398,110.359745 92.9419009,112.197939 96.2807229,114.036133 C105.411379,119.074148 130.34739,131.101182 137.913788,134.460516 C145.480187,137.819849 147.11258,138.56721 150.451406,139.566611 C153.790232,140.566012 157.265328,140.792074 159.377644,139.362367 C163.534137,136.571035 166.206877,131.663713 167.145515,127.516226 Z" id="Shape"></path>
                <path d="M271.602945,241.348115 C268.741098,235.288882 268.332262,233.791094 268.332262,228.821161 C268.332262,224.940528 268.672959,223.034253 269.763186,220.923733 C272.829451,215.068744 279.779652,210.166892 285.23079,210.098811 C292.044712,209.962648 302.538153,218.745132 307.648594,228.75308 C313.236011,239.850327 312.282062,248.905137 304.718608,255.577101 C300.357697,259.389653 295.656091,260.478953 289.796118,259.117328 C283.868005,257.687621 275.55502,249.585949 271.602945,241.348115 Z" id="Shape"></path>
            </g>
        </g>
    </g>
</svg>